<svg aria-hidden="true" style="position: absolute; width: 0; height: 0; overflow: hidden;" version="1.1" xmlns="http://www.w3.org/2000/svg" xmlns:xlink="http://www.w3.org/1999/xlink">
<defs>
<symbol id="icon-google" viewBox="0 0 33 32">
<path fill="#ffc107" style="fill: var(--color1, #ffc107)" d="M29.741 13.389h-1.074v-0.055h-12v5.333h7.535c-1.099 3.105-4.053 5.333-7.535 5.333-4.418 0-8-3.582-8-8s3.582-8 8-8c2.039 0 3.895 0.769 5.307 2.026l3.771-3.771c-2.381-2.219-5.567-3.588-9.079-3.588-7.363 0-13.333 5.97-13.333 13.333s5.97 13.333 13.333 13.333c7.363 0 13.333-5.97 13.333-13.333 0-0.894-0.092-1.767-0.259-2.611z"></path>
<path fill="#ff3d00" style="fill: var(--color2, #ff3d00)" d="M4.87 9.794l4.381 3.213c1.185-2.935 4.056-5.007 7.415-5.007 2.039 0 3.895 0.769 5.307 2.026l3.771-3.771c-2.381-2.219-5.567-3.588-9.079-3.588-5.121 0-9.563 2.891-11.796 7.127z"></path>
<path fill="#4caf50" style="fill: var(--color3, #4caf50)" d="M16.666 29.334c3.444 0 6.573-1.318 8.939-3.461l-4.127-3.492c-1.384 1.052-3.074 1.621-4.813 1.62-3.468 0-6.413-2.211-7.522-5.297l-4.348 3.35c2.207 4.318 6.688 7.281 11.87 7.281z"></path>
<path fill="#1976d2" style="fill: var(--color4, #1976d2)" d="M29.741 13.389h-1.074v-0.055h-12v5.333h7.535c-0.526 1.478-1.473 2.769-2.725 3.714l0.002-0.001 4.127 3.492c-0.292 0.265 4.394-3.205 4.394-9.871 0-0.894-0.092-1.767-0.259-2.611z"></path>
</symbol>
<symbol id="icon-eye-hidden" viewBox="0 0 31 32">
<path stroke-linejoin="round" stroke-linecap="round" stroke-miterlimit="4" stroke-width="2.56" d="M5.12 5.76l7.525 7.525M25.6 26.24l-7.525-7.525M12.645 13.285c-0.695 0.695-1.125 1.655-1.125 2.715 0 2.121 1.719 3.84 3.84 3.84 1.060 0 2.020-0.43 2.715-1.125M12.645 13.285l5.431 5.431M8.663 9.303c-2.611 1.703-4.87 4.17-6.103 6.696 2.235 4.578 7.836 8.96 12.8 8.96 2.224 0 4.577-0.88 6.697-2.263M12.495 7.484c0.96-0.287 1.925-0.444 2.866-0.444 4.963 0 10.563 4.383 12.799 8.96-0.707 1.446-1.749 2.873-3.001 4.148"></path>
</symbol>
<symbol id="icon-check-circle" viewBox="0 0 31 32">
<path stroke-linejoin="round" stroke-linecap="round" stroke-miterlimit="4" stroke-width="2.56" d="M20.48 12.16l-7.68 8.32-3.2-3.2M15.36 27.52c6.362 0 11.52-5.158 11.52-11.52s-5.158-11.52-11.52-11.52c-6.362 0-11.52 5.158-11.52 11.52s5.158 11.52 11.52 11.52z"></path>
</symbol>
</defs>
</svg>
