<svg aria-hidden="true" style="position: absolute; width: 0; height: 0; overflow: hidden;" version="1.1" xmlns="http://www.w3.org/2000/svg" xmlns:xlink="http://www.w3.org/1999/xlink">
<defs>
<symbol id="icon-google" viewBox="0 0 33 32">
<path fill="#ffc107" style="fill: var(--color1, #ffc107)" d="M29.741 13.389h-1.074v-0.055h-12v5.333h7.535c-1.099 3.105-4.053 5.333-7.535 5.333-4.418 0-8-3.582-8-8s3.582-8 8-8c2.039 0 3.895 0.769 5.307 2.026l3.771-3.771c-2.381-2.219-5.567-3.588-9.079-3.588-7.363 0-13.333 5.97-13.333 13.333s5.97 13.333 13.333 13.333c7.363 0 13.333-5.97 13.333-13.333 0-0.894-0.092-1.767-0.259-2.611z"></path>
<path fill="#ff3d00" style="fill: var(--color2, #ff3d00)" d="M4.87 9.794l4.381 3.213c1.185-2.935 4.056-5.007 7.415-5.007 2.039 0 3.895 0.769 5.307 2.026l3.771-3.771c-2.381-2.219-5.567-3.588-9.079-3.588-5.121 0-9.563 2.891-11.796 7.127z"></path>
<path fill="#4caf50" style="fill: var(--color3, #4caf50)" d="M16.666 29.334c3.444 0 6.573-1.318 8.939-3.461l-4.127-3.492c-1.384 1.052-3.074 1.621-4.813 1.62-3.468 0-6.413-2.211-7.522-5.297l-4.348 3.35c2.207 4.318 6.688 7.281 11.87 7.281z"></path>
<path fill="#1976d2" style="fill: var(--color4, #1976d2)" d="M29.741 13.389h-1.074v-0.055h-12v5.333h7.535c-0.526 1.478-1.473 2.769-2.725 3.714l0.002-0.001 4.127 3.492c-0.292 0.265 4.394-3.205 4.394-9.871 0-0.894-0.092-1.767-0.259-2.611z"></path>
</symbol>
<symbol id="icon-eye-hidden" viewBox="0 0 31 32">
<path stroke-linejoin="round" stroke-linecap="round" stroke-miterlimit="4" stroke-width="2.56" d="M5.12 5.76l7.525 7.525M25.6 26.24l-7.525-7.525M12.645 13.285c-0.695 0.695-1.125 1.655-1.125 2.715 0 2.121 1.719 3.84 3.84 3.84 1.060 0 2.020-0.43 2.715-1.125M12.645 13.285l5.431 5.431M8.663 9.303c-2.611 1.703-4.87 4.17-6.103 6.696 2.235 4.578 7.836 8.96 12.8 8.96 2.224 0 4.577-0.88 6.697-2.263M12.495 7.484c0.96-0.287 1.925-0.444 2.866-0.444 4.963 0 10.563 4.383 12.799 8.96-0.707 1.446-1.749 2.873-3.001 4.148"></path>
</symbol>
<symbol id="icon-check-circle" viewBox="0 0 31 32">
<path stroke-linejoin="round" stroke-linecap="round" stroke-miterlimit="4" stroke-width="2.56" d="M20.48 12.16l-7.68 8.32-3.2-3.2M15.36 27.52c6.362 0 11.52-5.158 11.52-11.52s-5.158-11.52-11.52-11.52c-6.362 0-11.52 5.158-11.52 11.52s5.158 11.52 11.52 11.52z"></path>
</symbol>
<symbol id="icon-arrow-solid-right" viewBox="0 0 30 32">
<path d="M21.333 16l-12.549-10.039v20.078l12.549-10.039z"></path>
</symbol>
<symbol id="icon-arrow-back-simple" viewBox="0 0 32 32">
<path stroke-linejoin="round" stroke-linecap="round" stroke-miterlimit="4" stroke-width="3.2" d="M20 26.667l-10.667-10.667 10.667-10.667"></path>
</symbol>
<symbol id="icon-arrow-down-simple" viewBox="0 0 32 32">
<path stroke-linejoin="round" stroke-linecap="round" stroke-miterlimit="4" stroke-width="2.6667" d="M5.333 10.667l10.667 10.667 10.667-10.667"></path>
</symbol>
<symbol id="icon-arrow-forward-simple" viewBox="0 0 32 32">
<path stroke-linejoin="round" stroke-linecap="round" stroke-miterlimit="4" stroke-width="3.2" d="M12 26.667l10.667-10.667-10.667-10.667"></path>
</symbol>
<symbol id="icon-arrow-solid-down" viewBox="0 0 30 32">
<path d="M15.238 22.349l-10.159-12.698h20.318l-10.159 12.698z"></path>
</symbol>
<symbol id="icon-arrow-up-simple" viewBox="0 0 32 32">
<path stroke-linejoin="round" stroke-linecap="round" stroke-miterlimit="4" stroke-width="2.6667" d="M26.667 21.333l-10.667-10.667-10.667 10.667"></path>
</symbol>
<symbol id="icon-delete" viewBox="0 0 33 32">
<path stroke-linejoin="round" stroke-linecap="round" stroke-miterlimit="4" stroke-width="1.8667" d="M8.667 6.667h16M12.667 6.667v0c2.103-2.453 5.897-2.453 8 0v0M12.667 26.667h8c1.473 0 2.667-1.194 2.667-2.667v-12c0-0.736-0.597-1.333-1.333-1.333h-10.667c-0.736 0-1.333 0.597-1.333 1.333v12c0 1.473 1.194 2.667 2.667 2.667z"></path>
</symbol>
<symbol id="icon-download" viewBox="0 0 32 32">
<path stroke-linejoin="round" stroke-linecap="round" stroke-miterlimit="4" stroke-width="1.8667" d="M21.333 14.667l-5.333 5.333M16 20l-5.333-5.333M16 20v-16M28 20v2.667c0 1.473-1.194 2.667-2.667 2.667h-18.667c-1.473 0-2.667-1.194-2.667-2.667v-2.667"></path>
</symbol>
<symbol id="icon-eye-open" viewBox="0 0 33 32">
<path stroke-linejoin="round" stroke-linecap="round" stroke-miterlimit="4" stroke-width="1.8667" d="M30 16c-2.329 4.768-8.163 9.333-13.334 9.333s-11.004-4.565-13.333-9.334"></path>
<path stroke-linejoin="round" stroke-linecap="round" stroke-miterlimit="4" stroke-width="1.8667" d="M30 16c-2.329-4.768-8.162-9.334-13.333-9.334s-11.005 4.564-13.334 9.333"></path>
<path stroke-linejoin="round" stroke-linecap="round" stroke-miterlimit="4" stroke-width="1.8667" d="M20.667 16c0 2.209-1.791 4-4 4s-4-1.791-4-4c0-2.209 1.791-4 4-4s4 1.791 4 4z"></path>
</symbol>
<symbol id="icon-filter-list" viewBox="0 0 32 32">
<path stroke-linejoin="round" stroke-linecap="round" stroke-miterlimit="4" stroke-width="1.8667" d="M5.334 9.333h21.333M9.334 16h13.333M14.667 22.667h2.667"></path>
</symbol>
<symbol id="icon-home" viewBox="0 0 32 32">
<path stroke-linejoin="round" stroke-linecap="round" stroke-miterlimit="4" stroke-width="1.8667" d="M18.667 26.667v-8c0-1.473-1.194-2.667-2.667-2.667s-2.667 1.194-2.667 2.667v8M14.644 4.8l-8 4.722c-0.813 0.48-1.311 1.353-1.311 2.296v12.181c0 1.473 1.194 2.667 2.667 2.667h16c1.473 0 2.667-1.194 2.667-2.667v-12.181c0-0.944-0.499-1.817-1.311-2.296l-8-4.722c-0.836-0.494-1.875-0.494-2.711 0z"></path>
</symbol>
<symbol id="icon-line-chart" viewBox="0 0 32 32">
<path stroke-linejoin="round" stroke-linecap="round" stroke-miterlimit="4" stroke-width="1.8667" d="M4 22l8-8.667 5.333 8 10.667-12.667"></path>
</symbol>
<symbol id="icon-mail" viewBox="0 0 31 32">
<path stroke-linejoin="round" stroke-linecap="round" stroke-miterlimit="4" stroke-width="1.792" d="M3.84 10.88l10.1 6.733c0.86 0.573 1.98 0.573 2.84 0l10.1-6.733M6.4 24.96h17.92c1.414 0 2.56-1.146 2.56-2.56v-12.8c0-1.414-1.146-2.56-2.56-2.56h-17.92c-1.414 0-2.56 1.146-2.56 2.56v12.8c0 1.414 1.146 2.56 2.56 2.56z"></path>
</symbol>
<symbol id="icon-moon" viewBox="0 0 32 32">
<path stroke-linejoin="round" stroke-linecap="round" stroke-miterlimit="4" stroke-width="1.8667" d="M26.101 19.435c-1.078 0.366-2.233 0.565-3.435 0.565-5.891 0-10.667-4.776-10.667-10.667 0-1.202 0.199-2.357 0.565-3.435-4.206 1.43-7.232 5.412-7.232 10.102 0 5.891 4.776 10.667 10.667 10.667 4.689 0 8.672-3.026 10.101-7.231z"></path>
</symbol>
<symbol id="icon-note" viewBox="0 0 32 32">
<path stroke-linejoin="round" stroke-linecap="round" stroke-miterlimit="4" stroke-width="1.8667" d="M17.333 4h-8c-1.473 0-2.667 1.194-2.667 2.667v18.667c0 1.473 1.194 2.667 2.667 2.667h13.333c1.473 0 2.667-1.194 2.667-2.667v-13.333M17.333 4l8 8M17.333 4v6.667c0 0.736 0.597 1.333 1.333 1.333h6.667M12 17.333h8M12 22.667h8"></path>
</symbol>
<symbol id="icon-off" viewBox="0 0 53 32">
<path d="M16 0h21.333c8.837 0 16 7.163 16 16s-7.163 16-16 16h-21.333c-8.837 0-16-7.163-16-16s7.163-16 16-16z"></path>
<path d="M16 29.333c7.364 0 13.333-5.97 13.333-13.333s-5.97-13.333-13.333-13.333c-7.364 0-13.333 5.97-13.333 13.333s5.97 13.333 13.333 13.333z"></path>
<path stroke-linejoin="miter" stroke-linecap="butt" stroke-miterlimit="4" stroke-width="0.6667" d="M16 2.333c7.548 0 13.667 6.119 13.667 13.667s-6.119 13.667-13.667 13.667c-7.548 0-13.667-6.119-13.667-13.667s6.119-13.667 13.667-13.667z"></path>
</symbol>
<symbol id="icon-panel-close" viewBox="0 0 31 32">
<path d="M26.88 4.48h-23.040c-1.056 0-1.92 0.864-1.92 1.92v19.2c0 1.056 0.864 1.92 1.92 1.92h23.040c1.056 0 1.92-0.864 1.92-1.92v-19.2c0-1.056-0.864-1.92-1.92-1.92zM9.6 25.6h-5.76v-19.2h5.76v19.2zM26.88 15.040h-9.792l3.456-3.456-1.344-1.344-5.76 5.76 5.76 5.76 1.344-1.344-3.456-3.456h9.792v8.64h-15.36v-19.2h15.36v8.64z"></path>
</symbol>
<symbol id="icon-search" viewBox="0 0 31 32">
<path stroke-linejoin="round" stroke-linecap="round" stroke-miterlimit="4" stroke-width="1.792" d="M17.138 17.778l7.182 7.182M12.16 19.84c3.888 0 7.040-3.152 7.040-7.040s-3.152-7.040-7.040-7.040c-3.888 0-7.040 3.152-7.040 7.040s3.152 7.040 7.040 7.040z"></path>
</symbol>
<symbol id="icon-settings" viewBox="0 0 32 32">
<path stroke-linejoin="round" stroke-linecap="round" stroke-miterlimit="4" stroke-width="1.8667" d="M12.869 6.088c0.271-1.22 1.353-2.088 2.603-2.088h1.055c1.25 0 2.332 0.868 2.603 2.088l0.271 1.218c0.881 0.345 1.698 0.82 2.425 1.402l1.192-0.375c1.192-0.375 2.485 0.128 3.11 1.21l0.528 0.914c0.625 1.082 0.414 2.454-0.507 3.298l-0.92 0.844c0.069 0.457 0.104 0.925 0.104 1.401s-0.036 0.944-0.104 1.401l0.92 0.844c0.921 0.845 1.132 2.216 0.507 3.299l-0.527 0.914c-0.625 1.083-1.918 1.586-3.11 1.21l-1.192-0.375c-0.727 0.582-1.544 1.057-2.425 1.402l-0.271 1.218c-0.271 1.22-1.353 2.088-2.603 2.088h-1.055c-1.25 0-2.332-0.868-2.603-2.088l-0.271-1.218c-0.882-0.345-1.698-0.82-2.425-1.402l-1.192 0.375c-1.192 0.375-2.485-0.128-3.11-1.21l-0.528-0.914c-0.625-1.082-0.414-2.454 0.507-3.298l0.92-0.844c-0.069-0.457-0.104-0.925-0.104-1.401s0.036-0.944 0.104-1.401l-0.92-0.844c-0.921-0.845-1.132-2.216-0.507-3.298l0.528-0.914c0.625-1.082 1.918-1.586 3.11-1.21l1.192 0.375c0.727-0.582 1.543-1.057 2.425-1.402l0.271-1.218z"></path>
<path stroke-linejoin="round" stroke-linecap="round" stroke-miterlimit="4" stroke-width="1.8667" d="M17.333 16c0 0.736-0.597 1.333-1.333 1.333s-1.333-0.597-1.333-1.333c0-0.736 0.597-1.333 1.333-1.333s1.333 0.597 1.333 1.333z"></path>
</symbol>
<symbol id="icon-store" viewBox="0 0 32 32">
<path stroke-linejoin="round" stroke-linecap="round" stroke-miterlimit="4" stroke-width="1.8667" d="M26.667 15.495v8.505c0 1.473-1.194 2.667-2.667 2.667h-16c-1.473 0-2.667-1.194-2.667-2.667v-8.505M10 13c0 1.657-1.343 3-3 3-1.541 0-2.811-1.162-2.981-2.658-0.026-0.226 0.010-0.453 0.067-0.673l1.394-5.342c0.306-1.174 1.367-1.994 2.58-1.994h15.879c1.213 0 2.274 0.819 2.58 1.994l1.394 5.342c0.057 0.22 0.093 0.447 0.067 0.673-0.17 1.496-1.439 2.658-2.981 2.658-1.657 0-3-1.343-3-3M10 13c0 1.657 1.343 3 3 3s3-1.343 3-3M10 13l0.667-7.667M16 13c0 1.657 1.343 3 3 3s3-1.343 3-3M16 13v-7.667M22 13l-0.667-7.667"></path>
</symbol>
<symbol id="icon-user-group" viewBox="0 0 32 32">
<path stroke-linejoin="round" stroke-linecap="round" stroke-miterlimit="4" stroke-width="1.8667" d="M24.673 25.333h1.993c1.473 0 2.756-1.232 2.288-2.629-0.713-2.128-2.467-3.415-5.551-3.861M19.333 14.486c0.388 0.123 0.832 0.181 1.333 0.181 2.222 0 3.333-1.143 3.333-4s-1.111-4-3.333-4c-0.501 0-0.945 0.058-1.333 0.181M12.667 18.667c4.818 0 7.386 1.346 8.288 4.038 0.468 1.397-0.815 2.629-2.288 2.629h-12c-1.473 0-2.756-1.232-2.288-2.629 0.902-2.692 3.47-4.038 8.288-4.038zM12.667 14.667c2.222 0 3.333-1.143 3.333-4s-1.111-4-3.333-4c-2.222 0-3.333 1.143-3.333 4s1.111 4 3.333 4z"></path>
</symbol>
<symbol id="icon-eye-hidden" viewBox="0 0 31 32">
<path stroke-linejoin="round" stroke-linecap="round" stroke-miterlimit="4" stroke-width="2.56" d="M5.12 5.76l7.525 7.525M25.6 26.24l-7.525-7.525M12.645 13.285c-0.695 0.695-1.125 1.655-1.125 2.715 0 2.121 1.719 3.84 3.84 3.84 1.060 0 2.020-0.43 2.715-1.125M12.645 13.285l5.431 5.431M8.663 9.303c-2.611 1.703-4.87 4.17-6.103 6.696 2.235 4.578 7.836 8.96 12.8 8.96 2.224 0 4.577-0.88 6.697-2.263M12.495 7.484c0.96-0.287 1.925-0.444 2.866-0.444 4.963 0 10.563 4.383 12.799 8.96-0.707 1.446-1.749 2.873-3.001 4.148"></path>
</symbol>
<symbol id="icon-check-circle-1" viewBox="0 0 31 32">
<path stroke-linejoin="round" stroke-linecap="round" stroke-miterlimit="4" stroke-width="2.56" d="M20.48 12.16l-7.68 8.32-3.2-3.2M15.36 27.52c6.362 0 11.52-5.158 11.52-11.52s-5.158-11.52-11.52-11.52c-6.362 0-11.52 5.158-11.52 11.52s5.158 11.52 11.52 11.52z"></path>
</symbol>
<symbol id="icon-akar-icons_statistic-down" viewBox="0 0 32 32">
<path stroke-linejoin="round" stroke-linecap="round" stroke-miterlimit="5.759" stroke-width="2.24" d="M5.466 7.082l4.811 7.666 7.666-4.811 7.217 11.5"></path>
<path stroke-linejoin="round" stroke-linecap="round" stroke-miterlimit="4" stroke-width="2.24" d="M20.479 20.366l4.679 1.071 1.071-4.679"></path>
</symbol>
<symbol id="icon-akar-icons_statistic-up" viewBox="0 0 32 32">
<path stroke-linejoin="round" stroke-linecap="round" stroke-miterlimit="5.759" stroke-width="2.24" d="M5.685 24.671l4.526-7.838 7.838 4.525 6.788-11.758"></path>
<path stroke-linejoin="round" stroke-linecap="round" stroke-miterlimit="4" stroke-width="2.24" d="M20.2 10.842l4.636-1.242 1.242 4.636"></path>
</symbol>
<symbol id="icon-arrow-up-right" viewBox="0 0 32 32">
<path stroke-linejoin="round" stroke-linecap="round" stroke-miterlimit="4" stroke-width="1.3333" d="M9.333 22.667l13.333-13.333"></path>
<path stroke-linejoin="round" stroke-linecap="round" stroke-miterlimit="4" stroke-width="1.3333" d="M9.333 9.333h13.333v13.333"></path>
</symbol>
<symbol id="icon-filter" viewBox="0 0 31 32">
<path d="M12.253 21.841c0 0.302 0.242 0.545 0.542 0.545h4.473c0.3 0 0.542-0.244 0.542-0.545v-3.341h-5.557v3.341zM21.306 10.182h-12.549c-0.418 0-0.678 0.455-0.469 0.818l3.772 6.409h5.945l3.772-6.409c0.206-0.363-0.055-0.818-0.472-0.818z"></path>
</symbol>
<symbol id="icon-sorter-up" viewBox="0 0 32 32">
<path d="M28.195 22.223l-11.545-13.387c-0.33-0.383-0.967-0.383-1.301 0l-11.545 13.387c-0.429 0.499-0.042 1.23 0.65 1.23h23.090c0.693 0 1.079-0.731 0.65-1.23z"></path>
</symbol>
<symbol id="icon-sorter-down" viewBox="0 0 32 32">
<path d="M27.545 8.548h-23.090c-0.693 0-1.079 0.731-0.65 1.23l11.545 13.387c0.33 0.383 0.967 0.383 1.301 0l11.545-13.387c0.429-0.499 0.042-1.23-0.65-1.23z"></path>
</symbol>
<symbol id="icon-help" viewBox="0 0 32 32">
<path stroke-linejoin="round" stroke-linecap="round" stroke-miterlimit="4" stroke-width="1.8667" d="M16 22.667h0.013M16 18.667c1.187-2.542 4-2.354 4-5.333 0-2-1.333-4-4-4-2.064 0-3.329 1.198-3.796 2.667M16 28c6.627 0 12-5.373 12-12s-5.373-12-12-12c-6.627 0-12 5.373-12 12s5.373 12 12 12z"></path>
</symbol>
<symbol id="icon-eye-open" viewBox="0 0 33 32">
<path stroke-linejoin="round" stroke-linecap="round" stroke-miterlimit="4" stroke-width="1.8667" d="M30 16c-2.329 4.768-8.163 9.333-13.334 9.333s-11.004-4.565-13.333-9.334"></path>
<path stroke-linejoin="round" stroke-linecap="round" stroke-miterlimit="4" stroke-width="1.8667" d="M30 16c-2.329-4.768-8.162-9.334-13.333-9.334s-11.005 4.564-13.334 9.333"></path>
<path stroke-linejoin="round" stroke-linecap="round" stroke-miterlimit="4" stroke-width="1.8667" d="M20.667 16c0 2.209-1.791 4-4 4s-4-1.791-4-4c0-2.209 1.791-4 4-4s4 1.791 4 4z"></path>
</symbol>
<symbol id="icon-edit" viewBox="0 0 33 32">
<path stroke-linejoin="round" stroke-linecap="round" stroke-miterlimit="4" stroke-width="1.8667" d="M16.667 5.333h-8c-1.473 0-2.667 1.194-2.667 2.667v16c0 1.473 1.194 2.667 2.667 2.667h16c1.473 0 2.667-1.194 2.667-2.667v-8M12.667 20v-3.333l11.667-11.667c0.921-0.92 2.413-0.92 3.333 0v0c0.921 0.92 0.921 2.413 0 3.333l-11.667 11.667h-3.333z"></path>
</symbol>
<symbol id="icon-delete" viewBox="0 0 33 32">
<path stroke-linejoin="round" stroke-linecap="round" stroke-miterlimit="4" stroke-width="1.8667" d="M8.667 6.667h16M12.667 6.667v0c2.103-2.453 5.897-2.453 8 0v0M12.667 26.667h8c1.473 0 2.667-1.194 2.667-2.667v-12c0-0.736-0.597-1.333-1.333-1.333h-10.667c-0.736 0-1.333 0.597-1.333 1.333v12c0 1.473 1.194 2.667 2.667 2.667z"></path>
</symbol>
<symbol id="icon-mail" viewBox="0 0 31 32">
<path stroke-linejoin="round" stroke-linecap="round" stroke-miterlimit="4" stroke-width="1.792" d="M3.84 10.88l10.1 6.733c0.86 0.573 1.98 0.573 2.84 0l10.1-6.733M6.4 24.96h17.92c1.414 0 2.56-1.146 2.56-2.56v-12.8c0-1.414-1.146-2.56-2.56-2.56h-17.92c-1.414 0-2.56 1.146-2.56 2.56v12.8c0 1.414 1.146 2.56 2.56 2.56z"></path>
</symbol>
<symbol id="icon-notifications" viewBox="0 0 31 32">
<path stroke-linejoin="round" stroke-linecap="round" stroke-miterlimit="4" stroke-width="1.792" d="M15.36 7.68c3.535 0 6.4 2.865 6.4 6.4v2.867c0 0.627 0.23 1.232 0.647 1.701l1.633 1.837c1.101 1.238 0.222 3.196-1.435 3.196h-14.489c-1.657 0-2.536-1.957-1.435-3.196l1.633-1.837c0.417-0.469 0.647-1.074 0.647-1.701l0-2.867c0-3.535 2.865-6.4 6.4-6.4zM15.36 7.68v-3.2M14.080 27.52h2.56"></path>
</symbol>
<symbol id="icon-menu" viewBox="0 0 32 32">
<path stroke-linejoin="round" stroke-linecap="round" stroke-miterlimit="4" stroke-width="1.6" d="M5.333 9.333h21.333M5.333 16h21.333M5.333 22.666h21.333"></path>
</symbol>
<symbol id="icon-add" viewBox="0 0 32 32">
<path stroke-linejoin="round" stroke-linecap="round" stroke-miterlimit="4" stroke-width="2.6667" d="M16 8v16M24 16h-16"></path>
</symbol>
<symbol id="icon-checkmark" viewBox="0 0 32 32">
<path d="M27 4l-15 15-7-7-5 5 12 12 20-20z"></path>
</symbol>
</defs>
</svg>
